<svg width="520" height="520" viewBox="0 0 520 520" fill="none" xmlns="http://www.w3.org/2000/svg">
  <rect x="40" y="60" width="440" height="320" rx="28" fill="#0F172A" stroke="#334155" stroke-width="2"/>
  <rect x="70" y="100" width="180" height="14" rx="7" fill="#38BDF8"/>
  <rect x="70" y="130" width="140" height="10" rx="5" fill="#475569"/>
  <rect x="70" y="152" width="200" height="10" rx="5" fill="#475569"/>
  <rect x="70" y="190" width="380" height="120" rx="18" fill="#111827" stroke="#1E293B"/>
  <rect x="90" y="210" width="120" height="12" rx="6" fill="#22D3EE"/>
  <rect x="90" y="235" width="200" height="10" rx="5" fill="#334155"/>
  <rect x="90" y="260" width="160" height="10" rx="5" fill="#334155"/>
  <rect x="90" y="285" width="90" height="10" rx="5" fill="#334155"/>
  <rect x="300" y="210" width="120" height="70" rx="14" fill="#0B1220" stroke="#1E293B"/>
  <circle cx="360" cy="245" r="18" fill="#38BDF8"/>
  <rect x="300" y="300" width="120" height="12" rx="6" fill="#64748B"/>
  <rect x="100" y="370" width="140" height="46" rx="18" fill="#1D4ED8"/>
  <rect x="250" y="370" width="120" height="46" rx="18" fill="#0EA5E9"/>
  <circle cx="420" cy="90" r="50" fill="url(#paint0_radial)"/>
  <circle cx="140" cy="420" r="70" fill="url(#paint1_radial)"/>
  <defs>
    <radialGradient id="paint0_radial" cx="0" cy="0" r="1" gradientUnits="userSpaceOnUse" gradientTransform="translate(420 90) rotate(90) scale(50)">
      <stop stop-color="#22D3EE"/>
      <stop offset="1" stop-color="#0B1220" stop-opacity="0"/>
    </radialGradient>
    <radialGradient id="paint1_radial" cx="0" cy="0" r="1" gradientUnits="userSpaceOnUse" gradientTransform="translate(140 420) rotate(90) scale(70)">
      <stop stop-color="#818CF8" stop-opacity="0.7"/>
      <stop offset="1" stop-color="#0B1220" stop-opacity="0"/>
    </radialGradient>
  </defs>
</svg>
